# xmcd
#
# Track frame offsets:
#	150
#	28232
#	48542
#	67337
#	86562
#	108675
#	137340
#	169795
#	205795
#	243560
#	266995
#	285725
#
# Disc length: 4056 seconds
#
# Revision: 1
# Processed by: cddbd v1.5.1PL0 Copyright (c) Steve Scherf et al.
# Submitted via: CDex 1.50Beta5
#
DISCID=bc0fd60c
DTITLE=デューク・ジョーダン - あなたと夜と音楽と
DYEAR=1998
DGENRE=Jazz
TTITLE0=デューク・ジョーダン/危険な関係のブルース
TTITLE1=デューク・ジョーダン/ジョードゥ
TTITLE2=サー・チャールス・トンプソン/スターダスト
TTITLE3=サー・チャールス・トンプソン/枯葉
TTITLE4=マル・ウォルドロン/あなたと夜と音楽と
TTITLE5=マル・ウォルドロン/ラウンド・ミッドナイト
TTITLE6=ハンク・ジョーンズ/オール・ザ・シングス・ユー・アー
TTITLE7=ハンク・ジョーンズ/ナイト・アンド・デイ
TTITLE8=トミー・フラナガン/朝日のようにさわやかに
TTITLE9=トミー・フラナガン/マイ・ワン・アンド・オンリー・ラブ
TTITLE10=ビル・エバンス/ハウ・マイ・ハート・シングス
TTITLE11=ビル・エバンス/イスラエル
EXTD=
EXTT0=
EXTT1=
EXTT2=
EXTT3=
EXTT4=
EXTT5=
EXTT6=
EXTT7=
EXTT8=
EXTT9=
EXTT10=
EXTT11=
PLAYORDER=
